<?xml version="1.0" encoding="utf-8"?>
<svg xmlns="http://www.w3.org/2000/svg" width="28.111" height="23.332" viewBox="0 0 28.111 23.332">
    <path id="Path_621" data-name="Path 621" d="M1024.006,207.609a.5.5,0,0,0-.485-.629h-21.2l-.806-2.418a4.527,4.527,0,0,0-4.3-3.1h-.8a.5.5,0,1,0,0,1h.8a3.526,3.526,0,0,1,3.349,2.414l3.584,10.753a4.527,4.527,0,0,0,4.3,3.1h12.029l.034,0h.188a.5.5,0,0,0,.485-.374l1.889-7.2c0-.015.008-.029.012-.044Zm-1.8,2.9h-3.766l.392-2.522h4.035Zm-.97,3.7h-3.371l.419-2.695h3.659Zm-.925,3.527h-2.994l.392-2.524h3.264Zm-7.07,0v-2.524h3.454l-.392,2.524Zm-3.6,0-.507-2.524h3.105v2.524Zm-5.811-6.221h3.539l.541,2.695h-3.182Zm4.562,0h3.848V214.2h-3.307Zm4.85-1v-2.522h4.578l-.392,2.522Zm4.029,1-.419,2.695h-3.61v-2.695Zm-5.031-1h-4.05l-.507-2.522h4.556Zm-5.579-2.522.507,2.522H1003.5l-.84-2.522Zm-1.561,7.332-.037-.11h3.049l.507,2.524h-.17a3.525,3.525,0,0,1-3.349-2.414" transform="translate(-995.911 -201.463)" fill="#363636"/>
    <path id="Path_622" data-name="Path 622" d="M1065.127,257.371a2.388,2.388,0,1,0,2.388,2.388,2.391,2.391,0,0,0-2.388-2.388m0,3.774a1.386,1.386,0,1,1,1.385-1.386,1.387,1.387,0,0,1-1.385,1.386" transform="translate(-1040.56 -238.816)" fill="#363636"/>
    <path id="Path_623" data-name="Path 623" d="M1026.292,257.371a2.388,2.388,0,1,0,2.388,2.388,2.391,2.391,0,0,0-2.388-2.388m0,3.774a1.386,1.386,0,1,1,1.386-1.386,1.387,1.387,0,0,1-1.386,1.386" transform="translate(-1014.614 -238.816)" fill="#363636"/>
</svg>

