<?xml version="1.0" encoding="utf-8"?>

<svg xmlns="http://www.w3.org/2000/svg" width="12.634" height="16.094" viewBox="0 0 12.634 16.094">
    <path id="Path_749" data-name="Path 749" d="M198.272,535.85a.353.353,0,0,0,.353-.353v-8.131a.353.353,0,0,0-.705,0V535.5a.353.353,0,0,0,.353.353" transform="translate(-191.954 -521.599)" fill="#fff"/>
    <path id="Path_750" data-name="Path 750" d="M191.113,535.85h.028a.353.353,0,0,0,.324-.38l-.645-8.131a.353.353,0,0,0-.7.056l.645,8.131a.353.353,0,0,0,.351.325" transform="translate(-186.883 -521.599)" fill="#fff"/>
    <path id="Path_751" data-name="Path 751" d="M204.232,535.85a.353.353,0,0,0,.351-.325l.645-8.131a.353.353,0,0,0-.7-.056l-.645,8.131a.353.353,0,0,0,.324.38h.028" transform="translate(-195.827 -521.599)" fill="#fff"/>
    <path id="Path_752" data-name="Path 752" d="M196.2,513.184l-.027-.264a.741.741,0,0,0-.739-.666H193.68a.741.741,0,0,0-.739.666l-.027.264h-.709l.035-.337a1.444,1.444,0,0,1,1.44-1.3h1.756a1.444,1.444,0,0,1,1.44,1.3l.035.337Z" transform="translate(-188.241 -511.549)" fill="#fff"/>
    <path id="Path_753" data-name="Path 753" d="M183.165,524.694l1.125,9.805a1.108,1.108,0,0,0,1.1.981h5.664a1.107,1.107,0,0,0,1.1-.981l1.125-9.805h.686l.024,0-1.134,9.883a1.812,1.812,0,0,1-1.8,1.606H185.39a1.812,1.812,0,0,1-1.8-1.606l-1.134-9.883.024,0Z" transform="translate(-181.905 -520.092)" fill="#fff"/>
    <path id="Path_754" data-name="Path 754" d="M180.883,518.584a1.449,1.449,0,0,1,1.448-1.448h9.739a1.449,1.449,0,0,1,1.448,1.448v.878H180.883Zm11.929,0a.744.744,0,0,0-.743-.743H187.2v0l-.055,0h-4.815a.744.744,0,0,0-.743.743v.173h11.224Z" transform="translate(-180.883 -515.18)" fill="#fff"/>
</svg>
