<?xml version="1.0" encoding="utf-8"?>
<!-- Generator: Adobe Illustrator 28.0.0, SVG Export Plug-In . SVG Version: 6.00 Build 0)  -->
<svg version="1.1" id="Layer_1" xmlns="http://www.w3.org/2000/svg" xmlns:xlink="http://www.w3.org/1999/xlink" x="0px" y="0px"
	 viewBox="0 0 786 502.2" style="enable-background:new 0 0 786 502.2;" xml:space="preserve">
<g>
	<path d="M151.4,53.6l12.3-12.3c0.6-0.7,1-1.4,1.3-2.1c0.3,0.8,0.8,1.5,1.3,2.1l12.3,12.3L191,41.3c1.2-1.4,1.9-3,1.9-4.8
		c0-1.8-0.6-3.4-1.9-4.8l-12.3-12.3l-12.3,12.3c-0.6,0.7-1,1.4-1.3,2.1c-0.3-0.8-0.8-1.5-1.3-2.1l-12.3-12.3l-12.3,12.3
		c-1.4,1.4-2.1,3-2.1,4.8c0,1.8,0.7,3.4,2.1,4.8L151.4,53.6z"/>
	<path d="M139.1,214.4c6.2,2.8,12.8,4.1,19.8,4.1c7.1,0,13.8-1.4,20-4.1c4.2-1.8,8-4.2,11.6-6.9c0.5,0.4,0.9,0.8,1.4,1.2
		c8.3,6.6,17.4,9.9,27.4,9.9h72.2c7.1,0,13.8-1.4,20-4.1s11.7-6.5,16.3-11.4c10.3-10.3,15.5-23.2,15.5-38.5
		c0-34.6-0.1-52.8-0.3-54.5c-0.7-13.2-5.8-24.5-15.2-34c-10.5-10.2-22.6-15.2-36.4-15.2c-13.7,0-25.8,5.1-36.2,15.4
		c-10.4,10.2-15.6,22.4-15.6,36.5V126l23-13.4c5.5-3.4,8.3-8.2,8.3-14.4v-9.4c0-5.5,2-10.3,6-14.3c4-4,8.9-6,14.6-6
		c5.5,0,10.3,2,14.3,6c4,4,6,8.8,6,14.3v13.9c-0.2,2.7-1.2,5-3.2,7c-2,2-4.4,2.9-7.2,2.9h-9.9c-7.1,0-13.8,1.4-20,4.3
		c-12.7,5.3-21.9,14.5-27.8,27.5c-2.7,6.4-4,13.8-4,22.2c0,9.1,2.5,17.9,7.5,26.5l2.9,5.1c0.9,1.4,1.3,2.9,1.3,4.3
		c0,1.2-0.4,2.6-1.1,4c-2,2.9-4.5,4.3-7.5,4.3h-23.5c-5.7,0-8.5-2.4-8.5-7.2V168v-2.1V96.6c0-5.3-1.2-10.2-3.5-14.7
		c-4.3-8.4-11.6-14.5-21.9-18.5c-4.8-1.8-9.6-2.7-14.4-2.7h-12c-7.1,0-13.8,1.4-19.9,4.1c-6.2,2.8-11.6,6.5-16.4,11.4
		c-10.2,10.2-15.2,22.3-15.2,36.4v54c0,14.1,5.1,26.2,15.2,36.4C127.3,207.8,132.9,211.6,139.1,214.4z M270.9,140.7
		c0-5.7,2-10.5,6-14.4c4-3.9,8.9-5.9,14.6-5.9c5.5,0,10.3,2,14.3,5.9c4,3.9,6,8.7,6,14.4v49.7c0,5.5-2,10.3-6,14.3
		c-4,4-8.8,6-14.3,6c-5.7,0-10.6-2-14.6-6s-6-8.8-6-14.3V140.7z M138.6,88.8c0-5.5,2-10.3,6-14.3s8.8-6,14.3-6h12
		c5.7,0,8.5,2.4,8.5,7.2v90.1v16.8v7.8c0,5.5-2,10.3-6,14.3s-8.9,6-14.6,6c-5.5,0-10.3-2-14.3-6s-6-8.8-6-14.3V88.8z"/>
	<path d="M454.1,96.5l12.3-12.3c1.2-1.4,1.9-3,1.9-4.8c0-1.8-0.6-3.4-1.9-4.8l-12.3-12.3l-12.3,12.3c-1.4,1.4-2.1,3-2.1,4.8
		c0,1.8,0.7,3.4,2.1,4.8L454.1,96.5z"/>
	<path d="M336,67.9c1.7,1.7,3.3,3.5,4.8,5.3c0.9-3.1,3.7-4.7,8.2-4.7h11.8c5.7,0,10.6,2,14.6,6s6,8.9,6,14.6v101.3
		c0,5.5-1.9,10.1-5.6,13.9c-3.8,3.7-8,5.9-12.8,6.4h-26.6l-0.3,0.3c-2.7,2.8-5.6,5.2-8.7,7.5H361c11.9,0,22.3-3.6,31.4-10.8
		c0.5,0.4,0.9,0.8,1.4,1.2c3.8,3,8.1,5.4,12.8,7.1c4.7,1.7,9.5,2.5,14.3,2.5c11.9,0,22.5-3.7,31.7-11.1c0.4,0.4,0.8,0.7,1.2,1
		c8.4,6.7,17.5,10,27.3,10c14.3,0,26.5-5.1,36.6-15.2c10.2-10.1,15.2-22.4,15.2-36.6V53.3l-23,13.4c-5.5,3.6-8.3,8.4-8.3,14.4v109.4
		c0,5.7-2,10.5-6,14.4c-4,3.9-8.9,5.9-14.6,5.9c-5.5,0-8.3-2.4-8.3-7.2v-90.9L449.5,126c-5.5,3.6-8.3,8.4-8.3,14.4v50
		c0,5.5-2,10.3-5.9,14.3c-3.9,4-8.7,6-14.4,6c-5.5,0-8.3-2.4-8.3-7.2v-90.6c0-7.1-1.3-13.8-4-20.1c-5.7-12.8-15-22-27.8-27.5
		c-6.2-2.8-12.9-4.3-20.1-4.3h-12c-5.8,0-11.3,1.1-16.6,3.4c1.2,1,2.5,2.2,3.7,3.3L336,67.9z"/>
	<path d="M578.6,222.4c-2.8-9.5-5.8-20.3-5.8-22.4c-0.4-10.5,4.8-18.7,14.4-24.6c5.5-3.4,8.3-8.4,8.3-15c0.2-42.9,0.3-86,0.3-129.1
		l-23.2,13.4c-5.5,3.6-8.3,8.4-8.3,14.4v129.7c0,8,2.2,15.8,6.5,23.3C573,216,575.7,219.4,578.6,222.4z"/>
	<path d="M465.2,247.3l-439,4.1l439,4.1C470.7,255.4,470.6,247.4,465.2,247.3z"/>
	<path d="M274.2,303.2l-191.6,3l191.6,3C279.8,309.1,279.7,303.2,274.2,303.2z"/>
	<path d="M692.5,202.8c-7.4,0-13.7-2.6-18.9-7.8c-5.2-5.2-7.8-11.3-7.8-18.2V44.5c0-7.2,2.6-13.4,7.8-18.6
		c5.2-5.2,11.5-7.8,18.9-7.8h15.6c7.2,0,10.8,3.1,10.8,9.4v86.4c0,2.4,0.1,4.7,0.4,7c6.1-15.4,19.8-27,36.5-30.2
		c2.7-3.5,4.1-7.7,4.1-12.6V54.5c0-7.2-1.5-13.6-4.5-19.3c-3-5.7-7-10.5-12-14.6c-5-4-10.5-7.2-16.7-9.4C720.6,9.1,714.3,8,707.8,8
		h-15.3c-18,0-33.8,6.6-47.2,19.8c-13.4,13.2-20.1,29-20.1,47.6V149c1.4,26.2,15.4,45.8,42,59l-0.7,0.3c-8.1,3.5-15.3,8.3-21.5,14.4
		c-6.3,6.1-11.1,13.1-14.6,21c-3.5,7.9-5.2,16.7-5.2,26.4v2.4c-0.5-0.2-1-0.3-1.7-0.3L151,276.3l472.5,4.1c0.6,0,1.2-0.1,1.7-0.3
		v0.1h0l0.2-0.1l29.6-17.2c7.2-4.4,10.8-10.5,10.8-18.4v-5.2c0-7.2,2.6-13.4,7.8-18.6c5.2-5.2,11.5-7.8,18.9-7.8h59.7
		c1.6,0,2.9-0.8,3.8-2.4l3.8-7.6H692.5z"/>
	<path d="M332.1,298.6c-0.5-1-1.3-1.8-2.2-2.4c-0.9-0.6-2-0.9-3.2-1c-0.1,0-0.2,0-0.3,0c-0.1,0-0.2,0-0.3,0c-0.9,0-1.7,0.1-2.4,0.2
		c-0.7,0.2-1.3,0.4-1.8,0.7c-0.5,0.3-1,0.7-1.4,1.2c-0.4,0.5-0.8,1.1-1.1,1.8c-0.4,0.1-0.8,0.3-1,0.7c-0.7,1.1-1.2,2.3-1.6,3.5
		c-0.4,1.2-0.6,2.4-0.6,3.6c0,0.8,0,1.6,0.2,2.4s0.3,1.5,0.6,2.2c0.3,0.7,0.6,1.2,1,1.8c0.4,0.5,0.8,1,1.4,1.3s1.1,0.7,1.7,0.9
		c0.6,0.2,1.3,0.3,2,0.3c1.6,0,3-0.2,4.2-0.7c1.2-0.5,2.1-1.2,2.9-2.1c0.5-0.6,0.9-1.2,1.3-1.9c0.4-0.7,0.7-1.5,0.9-2.2
		s0.5-1.6,0.6-2.4c0.1-0.8,0.2-1.6,0.3-2.4c0-1,0-2-0.2-3C332.8,300.3,332.5,299.4,332.1,298.6z M330.2,306.1
		c-0.1,0.7-0.3,1.3-0.5,2c-0.2,0.6-0.5,1.2-0.8,1.8c-0.3,0.6-0.6,1.1-1,1.5c-0.5,0.6-1.2,1.1-2,1.4s-1.8,0.5-3,0.4
		c-0.9,0-1.6-0.3-2.2-0.7c-0.6-0.5-1-1.1-1.4-1.9c-0.2-0.5-0.4-1-0.4-1.6c-0.1-0.6-0.1-1.2-0.1-1.8c0-0.8,0.1-1.5,0.3-2.3
		s0.5-1.6,0.8-2.3c0.4,0.1,0.7,0,1-0.2c0.3-0.2,0.5-0.5,0.5-0.9c0.1-0.7,0.3-1.2,0.5-1.6c0.2-0.4,0.5-0.8,1-1
		c0.4-0.2,0.9-0.4,1.5-0.5c0.6-0.1,1.2-0.1,2-0.1c0.7,0,1.3,0.2,1.8,0.5c0.5,0.3,1,0.8,1.2,1.4c0.3,0.5,0.5,1.2,0.6,1.9
		s0.2,1.5,0.1,2.2C330.4,304.8,330.3,305.4,330.2,306.1z"/>
	<path d="M351.9,297.6c-0.4-0.4-0.8-0.8-1.4-1c-0.5-0.3-1.1-0.5-1.8-0.7c-1-0.2-2.1-0.3-3.3-0.3c-1,0-2,0.1-3.1,0.2
		c-1.1,0.1-2.2,0.3-3.4,0.5c-0.4,0.1-0.7,0.3-0.9,0.6c-0.2,0.3-0.3,0.6-0.2,1c0.1,0.4,0.3,0.7,0.6,0.9s0.7,0.3,1,0.2
		c0.2,0,0.5-0.1,0.7-0.1c0.2,0,0.4-0.1,0.7-0.1v0l-1.7,15.1c0,0.4,0,0.7,0.3,1c0.2,0.3,0.6,0.5,0.9,0.5c0.4,0,0.7-0.1,1-0.3
		c0.3-0.2,0.5-0.5,0.5-0.9l0.7-6.5c0.3,0.2,0.6,0.3,1,0.4c0.3,0.1,0.7,0.1,1,0.1c0.5,0.6,0.9,1.2,1.4,1.8c0.4,0.6,0.9,1.2,1.3,1.8
		c0.5,0.6,0.9,1.2,1.4,1.8s1,1.2,1.6,1.8c0.3,0.3,0.6,0.4,1,0.4s0.7-0.1,1-0.4c0.3-0.3,0.4-0.6,0.4-1s-0.1-0.7-0.4-1
		c-0.9-0.9-1.6-1.8-2.3-2.7c-0.7-1-1.3-1.9-2-2.8c0.2,0,0.4-0.1,0.6-0.2c0.2-0.1,0.4-0.2,0.6-0.2c1-0.5,1.9-1.2,2.6-2.1
		c0.7-0.9,1.1-2,1.3-3.2c0-0.2,0.1-0.5,0.1-0.7c0-0.2,0-0.4,0-0.6c0-0.7-0.1-1.3-0.3-1.9C352.5,298.5,352.2,298.1,351.9,297.6z
		 M350.2,301.9c-0.1,0.8-0.4,1.4-0.8,1.9c-0.4,0.5-0.9,0.9-1.5,1.2c-0.3,0.2-0.7,0.3-1.1,0.4s-0.8,0.1-1.2,0.1
		c-0.3-0.2-0.6-0.4-0.9-0.6c-0.3-0.1-0.6-0.2-0.9-0.2c-0.4,0-0.7,0.1-1.1,0.3l0.7-6c0-0.2,0-0.5-0.1-0.6c0.3,0,0.7-0.1,1-0.1
		c0.3,0,0.6,0,1,0c1,0,1.9,0.1,2.7,0.3c0.7,0.2,1.2,0.5,1.6,0.9c0.4,0.4,0.6,1,0.6,1.7C350.3,301.4,350.3,301.6,350.2,301.9z"/>
	<path d="M371.8,298.3c-0.7-0.8-1.5-1.4-2.4-1.9s-2-0.8-3.2-0.9c-0.4,0-0.7,0-1.1,0c-0.9,0-1.8,0.1-2.7,0.3c-0.9,0.2-1.8,0.5-2.8,1
		c-0.3,0.1-0.5,0.3-0.6,0.5c-0.1,0.2-0.2,0.5-0.2,0.7c0,0.1,0,0.2,0,0.3c0,0.1,0.1,0.2,0.1,0.3c0.1,0.3,0.3,0.5,0.5,0.6
		c0.2,0.1,0.5,0.2,0.7,0.2c0.2,0,0.4,0,0.6-0.1l0.1-0.1l-1.5,13.2c-0.1,0-0.1,0-0.2,0c-0.4-0.1-0.7,0-1,0.2
		c-0.3,0.2-0.5,0.5-0.6,0.9c0,0.4,0,0.7,0.2,1c0.2,0.3,0.5,0.5,0.9,0.6c0.9,0.1,1.8,0.3,2.7,0.4c0.9,0.1,1.7,0.1,2.5,0.1
		c0.8,0,1.6-0.1,2.4-0.2s1.5-0.3,2.1-0.7c0.7-0.3,1.3-0.7,1.9-1.3c0.6-0.5,1.1-1.2,1.5-1.9c0.4-0.8,0.8-1.7,1.1-2.7
		c0.3-1,0.5-2.2,0.7-3.6c0-0.3,0-0.7,0-1.1c0-1.1-0.2-2.2-0.5-3.2C372.9,300,372.4,299.1,371.8,298.3z M371,304.6c0,0.1,0,0.3,0,0.4
		c-0.1,1.1-0.3,2-0.5,2.8c-0.2,0.8-0.5,1.5-0.8,2.1c-0.3,0.6-0.7,1.1-1,1.5s-0.8,0.7-1.3,0.9c-0.5,0.2-1,0.4-1.5,0.5
		c-0.6,0.1-1.2,0.1-1.8,0.1c-0.3,0-0.6,0-0.9,0s-0.6,0-0.9-0.1l1.5-13.9c0-0.2,0-0.4,0-0.5c0.3,0,0.5-0.1,0.8-0.1c0.2,0,0.5,0,0.7,0
		c0.1,0,0.3,0,0.4,0s0.2,0,0.4,0c0.8,0.1,1.5,0.3,2.2,0.6c0.6,0.3,1.2,0.8,1.6,1.3c0.4,0.5,0.8,1.1,1,1.8c0.2,0.7,0.3,1.4,0.3,2.2
		C371,304.3,371,304.5,371,304.6z"/>
	<path d="M393.2,295.9c-0.3-0.3-0.6-0.4-1-0.4l-7.9,0.4c0-0.3-0.2-0.5-0.3-0.7c-0.2-0.2-0.4-0.4-0.7-0.4c-0.4-0.1-0.7,0-1.1,0.1
		s-0.5,0.5-0.6,0.9l-0.1,0.3l-1.2,0.1c-0.4,0-0.7,0.2-1,0.5c-0.3,0.3-0.4,0.6-0.4,1c0,0.4,0.2,0.7,0.5,1c0.3,0.3,0.6,0.4,1,0.3
		l0.4,0c-0.1,0.7-0.3,1.4-0.5,2.1c-0.2,0.8-0.3,1.6-0.5,2.4h-0.2c-0.4,0-0.7,0.2-1,0.5c-0.3,0.3-0.4,0.6-0.4,1
		c0,0.3,0.1,0.6,0.3,0.8c0.2,0.2,0.4,0.4,0.7,0.5c-0.2,1.1-0.4,2.2-0.5,3.2c-0.1,1-0.2,1.8-0.2,2.5c0,0.2,0,0.4,0,0.6s0,0.3,0.1,0.5
		v0c0,0,0,0.1,0,0.1c0,0,0,0.1,0,0.1c0.3,0.7,0.9,1.3,1.6,1.7c0.8,0.4,1.7,0.6,2.8,0.6c0.6,0,1.2,0,1.8,0s1.3-0.2,2-0.3
		c0.7-0.1,1.3-0.3,2-0.5c0.7-0.2,1.3-0.4,1.9-0.7c0.4-0.1,0.6-0.4,0.8-0.8s0.2-0.7,0-1c-0.2-0.4-0.4-0.6-0.8-0.8
		c-0.3-0.1-0.7-0.1-1,0c-0.5,0.2-1,0.4-1.6,0.6c-0.6,0.2-1.1,0.3-1.7,0.4s-1.1,0.2-1.7,0.2c-0.5,0-1,0.1-1.5,0.1
		c-0.5,0-1-0.1-1.4-0.2c-0.4-0.1-0.6-0.2-0.7-0.4c0-0.1,0-0.3,0-0.6c0-0.5,0.1-1.3,0.2-2.3c0.1-1,0.3-2,0.6-3.1l6.9-0.4
		c0.2,0,0.4-0.1,0.5-0.1c0.2-0.1,0.3-0.2,0.4-0.3c0.1-0.1,0.2-0.3,0.3-0.5c0.1-0.2,0.1-0.4,0.1-0.6c0-0.4-0.2-0.7-0.5-1
		c-0.3-0.3-0.6-0.4-1-0.4l-6.1,0.4c0.2-0.8,0.3-1.7,0.5-2.4c0.2-0.8,0.3-1.5,0.5-2.1l8.7-0.5c0.4,0,0.7-0.2,1-0.5
		c0.3-0.3,0.4-0.6,0.3-1C393.7,296.5,393.5,296.1,393.2,295.9z"/>
	<path d="M412.4,297.6c-0.4-0.4-0.8-0.8-1.4-1c-0.5-0.3-1.1-0.5-1.8-0.7c-1-0.2-2.1-0.3-3.3-0.3c-1,0-2,0.1-3.1,0.2
		c-1.1,0.1-2.2,0.3-3.4,0.5c-0.4,0.1-0.7,0.3-0.9,0.6c-0.2,0.3-0.3,0.6-0.2,1c0.1,0.4,0.3,0.7,0.6,0.9s0.7,0.3,1,0.2
		c0.2,0,0.5-0.1,0.7-0.1c0.2,0,0.4-0.1,0.7-0.1v0l-1.7,15.1c0,0.4,0,0.7,0.3,1c0.2,0.3,0.6,0.5,0.9,0.5c0.4,0,0.7-0.1,1-0.3
		c0.3-0.2,0.5-0.5,0.5-0.9l0.7-6.5c0.3,0.2,0.6,0.3,1,0.4c0.3,0.1,0.7,0.1,1,0.1c0.5,0.6,0.9,1.2,1.4,1.8c0.4,0.6,0.9,1.2,1.3,1.8
		c0.5,0.6,0.9,1.2,1.4,1.8s1,1.2,1.6,1.8c0.3,0.3,0.6,0.4,1,0.4s0.7-0.1,1-0.4c0.3-0.3,0.4-0.6,0.4-1s-0.1-0.7-0.4-1
		c-0.9-0.9-1.6-1.8-2.3-2.7c-0.7-1-1.3-1.9-2-2.8c0.2,0,0.4-0.1,0.6-0.2c0.2-0.1,0.4-0.2,0.6-0.2c1-0.5,1.9-1.2,2.6-2.1
		c0.7-0.9,1.1-2,1.3-3.2c0-0.2,0.1-0.5,0.1-0.7c0-0.2,0-0.4,0-0.6c0-0.7-0.1-1.3-0.3-1.9C413.1,298.5,412.8,298.1,412.4,297.6z
		 M410.8,301.9c-0.1,0.8-0.4,1.4-0.8,1.9c-0.4,0.5-0.9,0.9-1.5,1.2c-0.3,0.2-0.7,0.3-1.1,0.4c-0.4,0.1-0.8,0.1-1.2,0.1
		c-0.3-0.2-0.6-0.4-0.9-0.6c-0.3-0.1-0.6-0.2-0.9-0.2c-0.4,0-0.7,0.1-1.1,0.3l0.7-6c0-0.2,0-0.5-0.1-0.6c0.3,0,0.7,0,1-0.1
		c0.3,0,0.6,0,1,0c1,0,1.9,0.1,2.7,0.3c0.7,0.2,1.2,0.5,1.6,0.9c0.4,0.4,0.6,1,0.6,1.7C410.8,301.4,410.8,301.6,410.8,301.9z"/>
	<path d="M429.2,311.1c-0.2-0.2-0.4-0.4-0.6-0.5s-0.6-0.2-1-0.1c-0.6,0.1-0.9,0.2-1.2,0.5c-0.2,0.3-0.3,0.6-0.3,1
		c0,0.4,0.1,0.8,0.4,1.2c0.2,0.4,0.5,0.8,0.8,1.1c0.3,0.2,0.6,0.3,0.9,0.3c0.4,0,0.7-0.1,0.9-0.3c0.1-0.2,0.3-0.4,0.4-0.6
		c0.1-0.3,0.1-0.5,0.2-0.8c0-0.3,0-0.6-0.1-0.9C429.5,311.5,429.4,311.3,429.2,311.1z"/>
	<path d="M438.2,311.1c-0.2-0.2-0.4-0.4-0.6-0.5c-0.3-0.1-0.6-0.2-1-0.1c-0.5,0.1-0.9,0.2-1.2,0.5c-0.2,0.3-0.3,0.6-0.3,1
		c0,0.4,0.1,0.8,0.3,1.2c0.2,0.4,0.5,0.8,0.8,1.1c0.3,0.2,0.6,0.3,0.9,0.3c0.3,0,0.6-0.1,0.9-0.3c0.2-0.2,0.3-0.4,0.4-0.6
		c0.1-0.3,0.2-0.5,0.2-0.8c0-0.3,0-0.6-0.1-0.9C438.4,311.5,438.3,311.3,438.2,311.1z"/>
	<path d="M447.1,311.1c-0.2-0.2-0.4-0.4-0.6-0.5s-0.6-0.2-1-0.1c-0.6,0.1-0.9,0.2-1.2,0.5c-0.2,0.3-0.3,0.6-0.3,1
		c0,0.4,0.1,0.8,0.4,1.2c0.2,0.4,0.5,0.8,0.8,1.1c0.3,0.2,0.6,0.3,0.9,0.3c0.4,0,0.7-0.1,0.9-0.3c0.1-0.2,0.3-0.4,0.4-0.6
		c0.1-0.3,0.1-0.5,0.2-0.8c0-0.3,0-0.6-0.1-0.9C447.3,311.5,447.2,311.3,447.1,311.1z"/>
	<path d="M479.4,294.6c-0.4,0-0.7,0.1-1,0.3c-0.3,0.2-0.5,0.6-0.5,1c0,0.3-0.1,0.8-0.2,1.4c-0.1,0.6-0.3,1.3-0.5,2.1
		c-0.2,0.8-0.5,1.7-0.8,2.6c-0.3,1-0.6,1.9-1,2.8c-0.3,1-0.7,1.9-1,2.8c-0.4,0.9-0.7,1.7-1,2.4c-0.2,0.4-0.3,0.8-0.5,1
		c-0.1,0.3-0.2,0.4-0.4,0.4c-0.1,0-0.2-0.2-0.3-0.6c-0.1-0.4-0.3-0.9-0.4-1.5c-0.1-0.6-0.3-1.2-0.4-2c-0.1-0.7-0.3-1.4-0.3-2
		c-0.1-0.4-0.1-0.8-0.2-1.2c0-0.4-0.1-0.8-0.1-1.2c0.1-0.2,0.1-0.4,0.2-0.6s0.1-0.4,0.1-0.6c0-0.2,0-0.4,0-0.6s0-0.3,0-0.5
		c-0.1-0.8-0.6-1.3-1.5-1.3c-0.5,0-0.9,0.2-1.2,0.5c-0.3,0.3-0.4,0.8-0.5,1.4c0,0.1,0,0.2,0,0.3s0,0.2,0,0.4c0,0.1,0,0.2,0,0.3
		c0,0.1,0,0.2,0,0.3c-0.1,0.2-0.2,0.4-0.2,0.6c-0.1,0.2-0.2,0.4-0.3,0.7c-0.4,0.9-0.7,1.8-1.1,2.6c-0.4,0.9-0.8,1.7-1.2,2.4
		c-0.4,0.7-0.7,1.3-1,1.8s-0.5,0.7-0.7,0.7c-0.1,0-0.2-0.3-0.2-0.8c-0.1-0.5-0.1-1.2-0.2-2c0-0.8-0.1-1.8-0.1-2.8c0-1,0-2.1-0.1-3.1
		c0-1.1,0-2.1,0-3c0-1,0-1.8,0-2.5c0-0.4-0.1-0.7-0.4-1c-0.3-0.3-0.6-0.4-1-0.4c-0.4,0-0.7,0.1-1,0.4c-0.3,0.3-0.4,0.6-0.4,1
		c0,0.7,0,1.5,0,2.3c0,0.9,0,1.8,0,2.7c0,0.9,0,1.9,0,2.9s0.1,2,0.1,2.9c0.1,0.9,0.2,1.8,0.3,2.7c0.1,0.8,0.3,1.6,0.5,2.2
		c0.2,0.6,0.5,1.1,0.8,1.5c0.3,0.4,0.7,0.6,1.1,0.6c0.4,0,0.8-0.2,1.3-0.6c0.5-0.4,1-1,1.5-1.6s1-1.5,1.6-2.3c0.5-0.9,1-1.8,1.5-2.7
		c0.2,0.9,0.4,1.7,0.7,2.6c0.3,0.8,0.6,1.6,0.9,2.2c0.3,0.6,0.7,1.2,1,1.5s0.8,0.6,1.2,0.6c0.4,0,0.8-0.1,1.1-0.4
		c0.3-0.2,0.7-0.6,1-1c0.5-0.7,1-1.5,1.4-2.5c0.5-1,0.9-2.1,1.4-3.3c0.5-1.2,0.9-2.3,1.2-3.6c0.4-1.2,0.7-2.4,1-3.4
		c0.3-1.1,0.5-2,0.7-2.9c0.2-0.8,0.3-1.4,0.3-1.8c0-0.4-0.1-0.7-0.3-1C480.1,294.8,479.8,294.6,479.4,294.6z"/>
	<path d="M499.2,295.5l-7.9,0.4c0-0.3-0.2-0.5-0.3-0.7c-0.2-0.2-0.4-0.4-0.7-0.4c-0.4-0.1-0.7,0-1.1,0.1c-0.3,0.2-0.5,0.5-0.6,0.9
		l-0.1,0.3l-1.2,0.1c-0.4,0-0.7,0.2-1,0.5c-0.3,0.3-0.4,0.6-0.4,1c0,0.4,0.2,0.7,0.5,1c0.3,0.3,0.6,0.4,1,0.3l0.4,0
		c-0.2,0.7-0.3,1.4-0.5,2.1c-0.2,0.8-0.4,1.6-0.5,2.4h-0.2c-0.4,0-0.7,0.2-1,0.5c-0.3,0.3-0.4,0.6-0.4,1c0,0.3,0.1,0.6,0.3,0.8
		c0.2,0.2,0.4,0.4,0.7,0.5c-0.2,1.1-0.4,2.2-0.5,3.2c-0.1,1-0.2,1.8-0.2,2.5c0,0.2,0,0.4,0,0.6s0,0.3,0.1,0.5v0c0,0,0,0.1,0,0.1
		c0,0,0,0.1,0,0.1c0.3,0.7,0.8,1.3,1.6,1.7c0.8,0.4,1.7,0.6,2.8,0.6c0.6,0,1.2,0,1.8,0s1.3-0.2,2-0.3c0.7-0.1,1.3-0.3,2-0.5
		c0.7-0.2,1.3-0.4,1.9-0.7c0.4-0.1,0.6-0.4,0.8-0.8c0.2-0.4,0.2-0.7,0-1c-0.1-0.4-0.4-0.6-0.8-0.8c-0.3-0.1-0.7-0.1-1,0
		c-0.5,0.2-1,0.4-1.6,0.6c-0.6,0.2-1.1,0.3-1.7,0.4s-1.1,0.2-1.7,0.2c-0.5,0-1,0.1-1.5,0.1c-0.5,0-1-0.1-1.4-0.2
		c-0.4-0.1-0.6-0.2-0.7-0.4c0-0.1,0-0.3,0-0.6c0-0.5,0.1-1.3,0.2-2.3c0.2-1,0.3-2,0.6-3.1l6.9-0.4c0.2,0,0.4-0.1,0.5-0.1
		c0.2-0.1,0.3-0.2,0.4-0.3c0.1-0.1,0.2-0.3,0.3-0.5c0.1-0.2,0.1-0.4,0.1-0.6c0-0.4-0.2-0.7-0.5-1c-0.3-0.3-0.6-0.4-1-0.4l-6.1,0.4
		c0.2-0.8,0.4-1.7,0.5-2.4c0.2-0.8,0.3-1.5,0.5-2.1l8.6-0.5c0.4,0,0.7-0.2,1-0.5c0.3-0.3,0.4-0.6,0.3-1c0-0.4-0.2-0.7-0.5-1
		C499.9,295.6,499.5,295.5,499.2,295.5z"/>
	<path d="M524.9,305.5c0-0.8-0.1-1.7-0.1-2.5c-0.1-0.8-0.1-1.6-0.2-2.4s-0.2-1.5-0.3-2.1c-0.1-0.6-0.3-1.2-0.4-1.7
		c-0.2-0.5-0.4-0.9-0.6-1.1c-0.2-0.3-0.5-0.4-0.8-0.4c-0.4,0-0.8,0.3-1.2,0.8c-0.5,0.5-0.9,1.3-1.5,2.2s-1,1.9-1.5,3
		c-0.5,1.1-1,2.3-1.5,3.5l-0.7,0c-0.4,0-0.7,0.1-1,0.3c-0.3,0.2-0.5,0.6-0.5,1c0,0.3,0.1,0.7,0.3,0.9c0.2,0.3,0.5,0.5,0.8,0.5
		c-0.4,1-0.8,1.9-1.1,2.8c-0.3,0.9-0.6,1.7-0.9,2.4c-0.2,0.7-0.5,1.4-0.8,2.2c-0.1,0.4-0.1,0.7,0.1,1.1c0.2,0.3,0.4,0.6,0.8,0.7
		c0.4,0.1,0.7,0.1,1,0c0.3-0.2,0.6-0.4,0.7-0.8c0.3-0.9,0.6-1.8,0.8-2.5c0.3-0.7,0.6-1.6,0.9-2.6c0.3-1,0.7-2,1.1-3l4,0.3
		c0,0.8,0,1.5,0,2.2s0,1.3-0.1,1.8c0,0.5,0,1.1,0,1.8c0,0.4,0.1,0.7,0.4,1c0.3,0.3,0.6,0.4,1,0.4c0.4,0,0.7-0.1,1-0.4s0.4-0.6,0.4-1
		c0,0,0-0.3,0-1c0-0.6,0-1.4,0-2.4c0-0.4,0-0.8,0-1.2c0-0.4,0-0.8,0-1.3c0.3-0.1,0.5-0.2,0.7-0.5c0.2-0.2,0.3-0.5,0.3-0.8
		c0-0.4-0.1-0.7-0.2-0.9C525.5,305.8,525.2,305.6,524.9,305.5z M522.4,304.8c0,0.2,0,0.3,0,0.5l-3.1-0.3c0.3-0.9,0.7-1.8,0.9-2.5
		s0.5-1.4,0.8-1.9c0.2-0.5,0.4-1,0.6-1.2c0.2-0.3,0.3-0.4,0.4-0.4c0,0,0.1,0.1,0.1,0.4c0,0.3,0.1,0.6,0.1,1.1c0,0.5,0.1,1.1,0.1,1.7
		c0,0.7,0.1,1.4,0.1,2.2C522.4,304.5,522.4,304.7,522.4,304.8z"/>
	<path d="M544.6,297.6c-0.4-0.4-0.8-0.8-1.4-1c-0.5-0.3-1.1-0.5-1.8-0.7c-1-0.2-2.1-0.3-3.3-0.3c-1,0-2,0.1-3.1,0.2
		c-1.1,0.1-2.2,0.3-3.4,0.5c-0.4,0.1-0.7,0.3-0.9,0.6s-0.3,0.6-0.2,1c0.1,0.4,0.3,0.7,0.6,0.9c0.3,0.2,0.7,0.3,1,0.2
		c0.2,0,0.5-0.1,0.7-0.1c0.2,0,0.4-0.1,0.7-0.1v0l-1.7,15.1c-0.1,0.4,0,0.7,0.3,1c0.2,0.3,0.5,0.5,0.9,0.5c0.4,0,0.7-0.1,1-0.3
		c0.3-0.2,0.5-0.5,0.5-0.9l0.7-6.5c0.3,0.2,0.6,0.3,1,0.4c0.3,0.1,0.7,0.1,1,0.1c0.5,0.6,0.9,1.2,1.3,1.8c0.4,0.6,0.9,1.2,1.3,1.8
		c0.4,0.6,0.9,1.2,1.4,1.8s1,1.2,1.6,1.8c0.3,0.3,0.6,0.4,1,0.4s0.7-0.1,1-0.4c0.3-0.3,0.4-0.6,0.4-1s-0.1-0.7-0.4-1
		c-0.9-0.9-1.6-1.8-2.3-2.7s-1.3-1.9-2-2.8c0.2,0,0.4-0.1,0.6-0.2c0.2-0.1,0.4-0.2,0.6-0.2c1-0.5,1.9-1.2,2.6-2.1
		c0.7-0.9,1.1-2,1.3-3.2c0.1-0.2,0.1-0.5,0.1-0.7c0-0.2,0-0.4,0-0.6c0-0.7-0.1-1.3-0.3-1.9S545,298.1,544.6,297.6z M542.9,301.9
		c-0.1,0.8-0.4,1.4-0.8,1.9c-0.4,0.5-0.9,0.9-1.5,1.2c-0.3,0.2-0.7,0.3-1.1,0.4c-0.4,0.1-0.8,0.1-1.2,0.1c-0.3-0.2-0.6-0.4-0.9-0.6
		c-0.3-0.1-0.6-0.2-0.9-0.2c-0.4,0-0.7,0.1-1.1,0.3l0.7-6c0-0.2,0-0.5-0.1-0.6c0.3,0,0.7,0,1-0.1c0.3,0,0.6,0,1,0c1,0,2,0.1,2.7,0.3
		c0.7,0.2,1.2,0.5,1.6,0.9c0.4,0.4,0.6,1,0.6,1.7C543,301.4,543,301.6,542.9,301.9z"/>
	<path d="M564.5,297.6c-0.4-0.4-0.8-0.8-1.4-1c-0.5-0.3-1.1-0.5-1.8-0.7c-1-0.2-2.1-0.3-3.3-0.3c-1,0-2,0.1-3.1,0.2
		c-1.1,0.1-2.2,0.3-3.4,0.5c-0.4,0.1-0.7,0.3-0.9,0.6s-0.3,0.6-0.2,1c0.1,0.4,0.3,0.7,0.6,0.9c0.3,0.2,0.7,0.3,1,0.2
		c0.2,0,0.5-0.1,0.7-0.1c0.2,0,0.4-0.1,0.7-0.1v0l-1.7,15.1c-0.1,0.4,0,0.7,0.3,1c0.2,0.3,0.5,0.5,0.9,0.5c0.4,0,0.7-0.1,1-0.3
		c0.3-0.2,0.5-0.5,0.5-0.9l0.7-6.5c0.3,0.2,0.6,0.3,1,0.4c0.3,0.1,0.7,0.1,1,0.1c0.5,0.6,0.9,1.2,1.3,1.8c0.4,0.6,0.9,1.2,1.3,1.8
		c0.4,0.6,0.9,1.2,1.4,1.8s1,1.2,1.6,1.8c0.3,0.3,0.6,0.4,1,0.4s0.7-0.1,1-0.4c0.3-0.3,0.4-0.6,0.4-1s-0.1-0.7-0.4-1
		c-0.9-0.9-1.6-1.8-2.3-2.7s-1.3-1.9-2-2.8c0.2,0,0.4-0.1,0.6-0.2c0.2-0.1,0.4-0.2,0.6-0.2c1-0.5,1.9-1.2,2.6-2.1
		c0.7-0.9,1.1-2,1.3-3.2c0.1-0.2,0.1-0.5,0.1-0.7c0-0.2,0-0.4,0-0.6c0-0.7-0.1-1.3-0.3-1.9S564.9,298.1,564.5,297.6z M562.8,301.9
		c-0.1,0.8-0.4,1.4-0.8,1.9c-0.4,0.5-0.9,0.9-1.5,1.2c-0.3,0.2-0.7,0.3-1.1,0.4c-0.4,0.1-0.8,0.1-1.2,0.1c-0.3-0.2-0.6-0.4-0.9-0.6
		c-0.3-0.1-0.6-0.2-0.9-0.2c-0.4,0-0.7,0.1-1.1,0.3l0.7-6c0-0.2,0-0.5-0.1-0.6c0.3,0,0.7,0,1-0.1c0.3,0,0.6,0,1,0c1,0,2,0.1,2.7,0.3
		c0.7,0.2,1.2,0.5,1.6,0.9c0.4,0.4,0.6,1,0.6,1.7C562.9,301.4,562.9,301.6,562.8,301.9z"/>
	<path d="M581.2,295.8l-3.3,0c-0.1,0-0.2-0.1-0.4-0.1c-0.3,0-0.5,0-0.8,0.1l-3.4,0c-0.4,0-0.7,0.1-1,0.4c-0.3,0.3-0.4,0.6-0.4,1
		c0,0.4,0.1,0.7,0.4,1c0.3,0.3,0.6,0.4,1,0.4l2.4,0l-1.7,14l-2.5,0.1c-0.4,0-0.7,0.1-1,0.4c-0.3,0.3-0.4,0.6-0.4,1
		c0,0.4,0.2,0.7,0.4,1s0.6,0.4,1,0.4l2.7-0.1c0.2,0.2,0.4,0.2,0.7,0.3c0.4,0,0.8-0.1,1-0.3l2.9-0.1c0.4,0,0.7-0.2,1-0.5
		c0.3-0.3,0.4-0.6,0.4-1c0-0.2,0-0.3-0.1-0.5c-0.1-0.2-0.2-0.3-0.3-0.4s-0.3-0.2-0.4-0.3c-0.2-0.1-0.3-0.1-0.5-0.1l-2.1,0.1
		l1.7-13.9l2.7,0c0.4,0,0.7-0.1,1-0.4c0.3-0.3,0.4-0.6,0.4-1s-0.1-0.7-0.4-1C582,295.9,581.6,295.8,581.2,295.8z"/>
	<path d="M600.1,295.1c-0.4-0.1-0.7,0-1,0.2c-0.3,0.2-0.5,0.5-0.6,0.9c-0.3,1-0.5,1.8-0.7,2.6s-0.5,1.6-0.8,2.6c-0.3,1-0.6,2-1,3
		s-0.7,2-1.1,3c-0.4,1-0.8,1.9-1.1,2.6s-0.7,1.4-1,1.8c-0.3,0.5-0.7,0.7-0.9,0.7c-0.1,0-0.2-0.2-0.4-0.7c-0.1-0.4-0.2-1-0.3-1.7
		c-0.1-0.7-0.2-1.5-0.3-2.4s-0.2-1.8-0.3-2.8c-0.1-1-0.2-1.9-0.2-2.8c-0.1-0.9-0.1-1.7-0.2-2.4c0-0.7-0.1-1.5-0.1-2.4
		c0-0.4-0.1-0.7-0.4-1s-0.6-0.4-1-0.4c-0.4,0-0.7,0.1-1,0.4c-0.3,0.3-0.4,0.6-0.4,1c0,1.1,0.1,2,0.1,2.9s0.1,1.9,0.2,3
		c0.1,1.1,0.2,2.3,0.3,3.4c0.1,1.2,0.3,2.3,0.5,3.4c0.2,1.1,0.4,2.1,0.7,3s0.6,1.6,1,2.1c0.4,0.5,0.8,0.8,1.3,0.8
		c0.6,0,1.3-0.3,1.9-0.8s1.2-1.3,1.8-2.2c0.6-0.9,1.1-1.9,1.7-3.1c0.5-1.2,1-2.3,1.5-3.5s0.9-2.4,1.2-3.5c0.4-1.2,0.7-2.2,1-3.1
		c0.3-0.9,0.5-1.6,0.6-2.2c0.1-0.6,0.2-0.8,0.2-0.8c0.1-0.4,0-0.7-0.2-1.1C600.8,295.4,600.5,295.1,600.1,295.1z"/>
	<path d="M619.6,295.5l-7.9,0.4c0-0.3-0.2-0.5-0.3-0.7c-0.2-0.2-0.4-0.4-0.7-0.4c-0.4-0.1-0.7,0-1.1,0.1c-0.3,0.2-0.5,0.5-0.6,0.9
		l-0.1,0.3l-1.2,0.1c-0.4,0-0.7,0.2-1,0.5c-0.3,0.3-0.4,0.6-0.4,1c0,0.4,0.2,0.7,0.5,1s0.6,0.4,1,0.3l0.4,0
		c-0.1,0.7-0.3,1.4-0.5,2.1c-0.2,0.8-0.4,1.6-0.5,2.4h-0.2c-0.4,0-0.7,0.2-1,0.5c-0.3,0.3-0.4,0.6-0.4,1c0,0.3,0.1,0.6,0.3,0.8
		c0.2,0.2,0.4,0.4,0.7,0.5c-0.2,1.1-0.4,2.2-0.5,3.2c-0.1,1-0.2,1.8-0.2,2.5c0,0.2,0,0.4,0,0.6s0,0.3,0.1,0.5v0c0,0,0,0.1,0,0.1
		c0,0,0,0.1,0,0.1c0.3,0.7,0.9,1.3,1.6,1.7c0.8,0.4,1.7,0.6,2.8,0.6c0.6,0,1.2,0,1.8,0s1.3-0.2,2-0.3s1.3-0.3,2-0.5
		c0.7-0.2,1.3-0.4,1.9-0.7c0.4-0.1,0.6-0.4,0.8-0.8s0.2-0.7,0-1c-0.2-0.4-0.4-0.6-0.8-0.8c-0.3-0.1-0.7-0.1-1,0
		c-0.5,0.2-1,0.4-1.6,0.6c-0.6,0.2-1.1,0.3-1.7,0.4s-1.1,0.2-1.7,0.2c-0.5,0-1.1,0.1-1.5,0.1c-0.5,0-1-0.1-1.4-0.2
		c-0.4-0.1-0.6-0.2-0.7-0.4c0-0.1,0-0.3,0-0.6c0-0.5,0.1-1.3,0.2-2.3c0.2-1,0.3-2,0.6-3.1l6.9-0.4c0.2,0,0.4-0.1,0.5-0.1
		s0.3-0.2,0.4-0.3c0.1-0.1,0.2-0.3,0.3-0.5s0.1-0.4,0.1-0.6c0-0.4-0.2-0.7-0.5-1c-0.3-0.3-0.6-0.4-1-0.4l-6.1,0.4
		c0.2-0.8,0.3-1.7,0.5-2.4c0.2-0.8,0.3-1.5,0.5-2.1l8.7-0.5c0.4,0,0.7-0.2,1-0.5c0.3-0.3,0.4-0.6,0.3-1c0-0.4-0.2-0.7-0.5-1
		S620,295.5,619.6,295.5z"/>
</g>
<g>
	<path d="M310.6,414.7c1,0,1.8-0.5,2.4-1.4l1.6-2.7c0.3-0.5,0.5-1.1,0.5-1.6c0-0.8-0.3-1.5-0.9-2.1c-0.6-0.6-1.3-0.9-2.1-0.9
		c-1,0-1.8,0.5-2.4,1.4l-1.6,2.7c-0.3,0.6-0.5,1.1-0.5,1.6c0,0.8,0.3,1.5,0.9,2.1C309.1,414.4,309.8,414.7,310.6,414.7z"/>
	<path d="M315.3,419.2c-0.8,0-1.5,0.3-2.1,0.8s-0.9,1.2-0.9,2c0,0.4,0.1,0.9,0.4,1.4c0.9,1.8,1.3,3.9,1.3,6.3c0,1.6-1.7,3-5,4.3
		c-2.8,1.1-5.2,1.6-7.1,1.6c-0.6,0-1.2,0.1-1.6,0.3c-2.2,0.4-4.4,0.5-6.8,0.5c-2.2,0-4.5-0.2-7-0.4c-0.5-0.3-1-0.4-1.8-0.4
		c-3.6,0-6.2-0.6-7.8-1.8c3.3-1.2,7.1-3,11.3-5.6c6.4-3.9,10.8-7.5,13.2-11c1.5-2.1,2.2-4.1,2.2-5.8c0-3.9-3-5.9-9-5.9
		c-1.8,0-4,0.6-6.5,1.9c-2.3,1.1-4.1,2.2-5.5,3.4c-4.5,4-7.4,6.7-8.6,8.1c-3.3,3.7-4.9,7.1-5,10.3v0.4c0,0.1,0,0.1,0,0.2
		c-0.4,0.1-0.9,0.1-1.3,0.1c-0.7,0-1.3-0.1-1.8-0.3c0.1-0.1,0.2-0.2,0.3-0.3c0.6-0.6,0.9-1.3,0.9-2c0-0.8-0.3-1.5-0.9-2.2
		s-1.3-0.9-2-0.9c-0.7,0-1.4,0.3-2,1c-1.3,1.5-3.4,3.6-6.1,6.1c-3,2.7-5.7,4-8.1,4c-0.3,0-0.6,0-0.9,0.1c0,0,0,0-0.1,0
		c-2.4,0-3.7-0.5-4-1.6c-0.1-0.4-0.2-0.7-0.4-1c-0.5-6-1.5-16.6-3-31.8c-0.2-1.7-1.1-2.6-2.9-2.6c-2,0-2.9,0.9-2.9,2.7v0.5
		c2.3,22.5,3.4,34.7,3.4,36.7c0,6.7-3.8,11.9-11.3,15.5c-6.2,2.9-13.6,4.4-22.2,4.4c-5.6,0-10.7-0.7-15.4-2
		c-7.1-2-10.6-5.1-10.6-9.4c0-3.8,2.9-7,8.7-9.6c6.6-3,16.2-4.8,28.9-5.4c3.3-0.2,5-0.8,5-1.9c0-1.2-1.7-1.8-5.1-2
		c-1.9-0.1-3.8-0.2-5.7-0.2c-11,0-20,1.7-26.9,5.1c-7.1,3.5-10.7,8.2-10.7,14c0,6.4,4,11.1,12,14.1c5.6,2.1,12.2,3.2,19.8,3.2
		c9.4,0,17.6-1.7,24.7-5c8.9-4.1,13.7-10.2,14.5-18.3c1.2,0.3,2.6,0.5,4.1,0.5c0.3,0,0.6,0,0.9-0.1c0,0,0.1,0,0.1,0
		c3.2,0,6.7-1.5,10.5-4.6c1.2-1,2.3-2,3.4-3c1.6,1.1,3.8,1.6,6.5,1.6c0.6,0,1.3,0,1.9-0.1c1.9,3.7,6.1,5.8,12.7,6.1
		c0.2,0,0.4,0,0.6,0c3,0.6,5.9,0.9,8.8,0.9s5.7-0.3,8.5-0.9c0.2,0,0.4,0,0.6,0c0.2,0,0.4,0,0.6,0c3.8,0,7.6-1,11.3-3
		c4.4-2.3,6.6-5.2,6.6-8.8c0-3.4-0.6-6.4-2-8.9C317.2,419.7,316.4,419.2,315.3,419.2z M282.8,417.8c5.1-4.5,8.7-6.7,10.8-6.7
		c2.3,0,3.5,0.5,3.5,1.6c0,0.4-0.2,0.9-0.5,1.4c-7.1,7.1-14.4,11.9-21.9,14.5C275,425.8,277.7,422.2,282.8,417.8z"/>
	<path d="M352.2,437.1c-0.4-0.4-0.8-0.7-1.3-0.9c-0.5-0.2-1-0.3-1.5-0.3c-0.5,0-1,0.1-1.5,0.3c-0.5,0.2-0.9,0.5-1.2,0.9
		c-0.4,0.4-0.6,0.8-0.9,1.3c-0.2,0.5-0.3,1-0.3,1.6c0,0.5,0.1,1.1,0.3,1.6c0.2,0.5,0.5,0.9,0.9,1.3c0.3,0.4,0.8,0.7,1.2,0.9
		c0.5,0.2,1,0.3,1.5,0.3c0.5,0,1-0.1,1.5-0.3c0.5-0.2,0.9-0.5,1.3-0.9c0.4-0.4,0.6-0.8,0.8-1.3c0.2-0.5,0.3-1,0.3-1.6
		c0-0.5-0.1-1.1-0.3-1.6C352.9,437.9,352.6,437.4,352.2,437.1z"/>
	<path d="M388.8,437.1c-0.4-0.4-0.8-0.7-1.3-0.9c-0.5-0.2-1-0.3-1.5-0.3c-0.5,0-1,0.1-1.5,0.3c-0.5,0.2-0.9,0.5-1.2,0.9
		c-0.4,0.4-0.6,0.8-0.8,1.3c-0.2,0.5-0.3,1-0.3,1.6c0,0.5,0.1,1.1,0.3,1.6c0.2,0.5,0.5,0.9,0.8,1.3c0.4,0.4,0.8,0.7,1.2,0.9
		c0.5,0.2,1,0.3,1.5,0.3c0.5,0,1-0.1,1.5-0.3c0.5-0.2,0.9-0.5,1.3-0.9c0.4-0.4,0.6-0.8,0.9-1.3c0.2-0.5,0.3-1,0.3-1.6
		c0-0.5-0.1-1.1-0.3-1.6C389.4,437.9,389.1,437.4,388.8,437.1z"/>
	<path d="M425.3,437.1c-0.4-0.4-0.8-0.7-1.3-0.9c-0.5-0.2-1-0.3-1.5-0.3c-0.5,0-1,0.1-1.5,0.3c-0.5,0.2-0.9,0.5-1.2,0.9
		c-0.4,0.4-0.6,0.8-0.9,1.3c-0.2,0.5-0.3,1-0.3,1.6c0,0.5,0.1,1.1,0.3,1.6c0.2,0.5,0.5,0.9,0.9,1.3c0.3,0.4,0.8,0.7,1.2,0.9
		c0.5,0.2,1,0.3,1.5,0.3c0.5,0,1-0.1,1.5-0.3c0.5-0.2,0.9-0.5,1.3-0.9s0.6-0.8,0.8-1.3c0.2-0.5,0.3-1,0.3-1.6c0-0.5-0.1-1.1-0.3-1.6
		C425.9,437.9,425.6,437.4,425.3,437.1z"/>
	<path d="M482.4,454.3c-1,0-1.8,0.5-2.4,1.4l-1.6,2.7c-0.3,0.5-0.5,1.1-0.5,1.6c0,0.8,0.3,1.5,0.9,2.1c0.6,0.6,1.3,0.9,2.1,0.9
		c1,0,1.8-0.5,2.4-1.4l1.6-2.7c0.3-0.6,0.5-1.1,0.5-1.6c0-0.8-0.3-1.5-0.9-2.1C483.9,454.6,483.2,454.3,482.4,454.3z"/>
	<path d="M573.2,420.1c0.3,3,1.1,4.5,2.2,4.5c0.6,0,1.2-0.5,1.7-1.6c0.5-1.1,0.7-2.5,0.7-4.2c0-7.1-1.1-15.4-3.1-24.8
		c-0.2-1.2-0.9-1.8-1.9-1.8c-0.8,0-1.6,0.4-2.4,1.2c-0.7,0.8-1.1,1.7-1.1,2.7c0,0.2,0,0.5,0,0.7
		C571.1,406.1,572.4,413.8,573.2,420.1z"/>
	<path d="M599.1,418.1c-1.9-1.4-4.1-2.1-6.3-2.1c-3.5,0-7.9,2.6-13.4,7.9c-4,3.8-7.2,7.5-9.6,11.1c-3,0.4-5.8,0.7-8.3,0.7
		c-0.1,0-0.2,0-0.2,0c-0.1,0-0.3,0-0.4,0c-2,0-3.1-0.5-3.2-1.4c-1.7-15.4-2.9-27.8-3.6-37.3c-0.2-1.8-1.1-2.7-2.8-2.7
		c-2,0-3,0.9-3,2.7v0.4c1.1,13.5,2,23.5,2.8,30.2c-1.2,1.2-3.9,2.6-8.1,4.3c-6.4,2.5-13,3.8-19.8,3.8c-0.1,0-0.3,0-0.4,0
		c-0.2,0-0.4,0-0.6,0c-1.6,0-2.7-0.9-3.3-2.6c-0.1-0.2-0.3-1.8-0.7-4.8c-0.2-1.7-0.8-2.6-1.6-2.6c-0.6,0-1.4,0.3-2.5,1
		c-4.1,2.7-9.5,5.1-16.3,7.2c-7.9,2.4-15.2,3.6-22.1,3.6c-4.1,0-7.9-0.5-11.3-1.5c-5-1.5-7.5-3.8-7.5-6.9c0-5.9,10.8-11,32.3-15.2
		c3.4-0.7,5.1-1.5,5.1-2.4c0-0.7-1-1-3-1c-0.6,0-1.3,0-2.1,0.1c-25.4,2.7-38.1,8.9-38.1,18.5c0,5.3,3,9.2,9,11.6
		c4.3,1.7,9.5,2.6,15.6,2.6c6.3,0,13.2-1,20.6-3c6.4-1.7,12.1-3.9,17.2-6.4c0.5,5.1,3.4,7.6,8.7,7.6c0.2,0,0.3,0,0.5,0
		c0.2,0,0.3,0,0.5,0c7.5,0,14.8-1.4,21.9-4.2c2.7-1.1,5-2.1,6.8-3.2c0.1,0.4,0.1,0.7,0.2,1.1c0.7,4.2,3.7,6.3,9,6.3
		c0.1,0,0.2,0,0.3,0c0.1,0,0.2,0,0.3,0c5.5,0,12.1-1,19.9-3c10.1-2.5,16.5-5.7,19.2-9.7c1.2-1.7,1.8-3.4,1.8-5
		C602.3,421.6,601.2,419.7,599.1,418.1z M595.7,425.6c-1.9,2.7-7.1,5.1-15.6,7.3c-0.6,0.2-1.2,0.3-1.8,0.4c1.3-1.6,2.9-3.2,4.6-4.9
		c4.5-4.5,7.7-6.7,9.8-6.7c2.4,0,3.5,0.7,3.5,2.2C596.3,424.5,596.1,425.1,595.7,425.6z"/>
	<path d="M615.4,429.5c-1-12.1-1.9-21.3-2.5-27.9c-0.1-1.5-0.7-2.2-1.8-2.2c-0.9,0-1.7,0.5-2.4,1.5c-0.7,1-1.1,2.2-1.1,3.7v0.3
		c0.6,6.4,1.2,11.7,1.6,15.9c0.7,6.4,1.3,10.5,1.6,12.2c0.7,3.3,1.5,5,2.6,5c1.4,0,2.1-2.1,2.1-6.4
		C615.5,430.9,615.4,430.2,615.4,429.5z"/>
	<path d="M613.1,386.8c0-1-0.4-1.7-1.2-2.1c-0.2-0.1-1-0.4-2.4-0.8c0.5-1.2,1.4-2.3,3-3.5c0.5-0.5,0.8-0.9,0.8-1.5
		c0-1-0.6-1.5-1.8-1.5c-0.4,0-0.8,0.1-1.2,0.3c-1.2,0.7-2.2,1.7-3.2,2.9c-1.1,1.4-1.7,2.7-1.7,3.8c0,1.4,1.2,2.4,3.5,3
		c-0.6,1.6-2.3,2.9-5,3.9c-0.9,0.3-1.3,0.9-1.3,1.7c0,1,0.5,1.5,1.6,1.5c1.9,0,3.9-0.8,5.9-2.4C612.1,390.4,613.1,388.7,613.1,386.8
		z"/>
</g>
</svg>
